<svg width="20" height="20" viewBox="0 0 20 20" fill="none" xmlns="http://www.w3.org/2000/svg">
    <path d="M15.6417 6.93514C14.5049 5.33685 13.3297 3.68426 12.5978 1.49713L12.0968 0L11.4365 0.301343L11.0369 1.49607C10.4899 3.13056 9.69508 4.4669 8.85427 5.70422C9.17265 6.18977 9.50171 6.65402 9.82863 7.11297C10.5124 6.13759 11.2175 5.07491 11.8168 3.85143C12.5562 5.36241 13.4579 6.62954 14.2806 7.78592C15.8671 10.0157 17.1887 11.8737 16.5178 14.3643C16.1865 15.5963 15.2816 16.6345 14.0488 17.1616C12.2848 17.9155 10.5466 17.7111 9.22821 16.9337C8.64576 17.2312 8.01677 17.4279 7.36816 17.5152C8.53376 18.5384 10.0978 19.1667 11.8168 19.1667C15.4088 19.1667 18.3318 16.4258 18.3318 13.0567C18.3318 10.7184 17.0242 8.88058 15.6406 6.93514H15.6417Z" fill="white"/>
    <path d="M8.91933 7.98073C8.12125 6.85948 7.29753 5.6999 6.78365 4.1655L6.49412 3.2998L5.88514 3.57772L5.68856 4.1655C5.17467 5.6999 4.35096 6.85948 3.55287 7.98073C2.3798 9.6312 1.28471 11.172 1.79433 13.356C2.07531 14.5581 2.9204 15.591 4.11164 16.1074C7.49198 17.5736 10.8072 15.2811 10.8072 12.2751C10.8072 10.6343 9.89048 9.34579 8.91933 7.98073Z" fill="url(#paint0_linear_1125_8)"/>
    <defs>
    <linearGradient id="paint0_linear_1125_8" x1="1.8189" y1="4.93855" x2="8.70615" y2="15.6726" gradientUnits="userSpaceOnUse">
    <stop offset="0.37" stop-color="#C7F200"/>
    <stop offset="0.84" stop-color="#00CD17"/>
    </linearGradient>
    </defs>
    </svg>
    