<svg data-name="Layer 2" xmlns="http://www.w3.org/2000/svg" viewBox="0 0 156 180"><defs><linearGradient id="a" x1="1.43" y1="46.38" x2="66.2" y2="146.99" gradientUnits="userSpaceOnUse"><stop offset=".37" stop-color="#c7f200"/><stop offset=".84" stop-color="#00cd17"/></linearGradient></defs><g data-name="Layer 1"><path d="M130.81 65.13c-10.64-15.01-21.64-30.53-28.49-51.07L97.63 0l-6.18 2.83-3.74 11.22c-5.12 15.35-12.56 27.9-20.43 39.52 2.98 4.56 6.06 8.92 9.12 13.23 6.4-9.16 13-19.14 18.61-30.63 6.92 14.19 15.36 26.09 23.06 36.95 14.85 20.94 27.22 38.39 20.94 61.78-3.1 11.57-11.57 21.32-23.11 26.27-16.51 7.08-32.78 5.16-45.12-2.14a54.011 54.011 0 0 1-17.41 5.46C64.28 174.1 78.92 180 95.01 180c33.62 0 60.98-25.74 60.98-57.38 0-21.96-12.24-39.22-25.19-57.49Z" style="fill:#fff"/><path d="M67.89 74.95C60.42 64.42 52.71 53.53 47.9 39.12l-2.71-8.13-5.7 2.61-1.84 5.52c-4.81 14.41-12.52 25.3-19.99 35.83C6.68 90.45-3.57 104.92 1.2 125.43c2.63 11.29 10.54 20.99 21.69 25.84 31.64 13.77 62.67-7.76 62.67-35.99 0-15.41-8.58-27.51-17.67-40.33Z" style="fill:url(#a)"/></g></svg>