<svg id="Layer_1" data-name="Layer 1" xmlns="http://www.w3.org/2000/svg" viewBox="0 0 156 180"><defs><style>.cls-1{fill:#fff;}.cls-2{fill:#00cd17;}</style></defs><path class="cls-1" d="M758.64,943.13c-10.64-15-21.64-30.53-28.49-51.07L725.47,878l-6.18,2.83-3.74,11.23C710.43,907.41,703,920,695.12,931.58c3,4.55,6.06,8.92,9.12,13.22a226,226,0,0,0,18.61-30.63c6.92,14.19,15.36,26.09,23.06,37,14.85,20.94,27.22,38.39,20.94,61.78a40.12,40.12,0,0,1-23.1,26.27c-16.51,7.08-32.79,5.15-45.13-2.14a54,54,0,0,1-17.41,5.46A62.85,62.85,0,0,0,722.85,1058c33.62,0,61-25.74,61-57.38C783.83,978.65,771.59,961.4,758.64,943.13Z" transform="translate(-627.83 -878)"/><path class="cls-2" d="M695.72,953c-7.46-10.53-15.18-21.41-20-35.83L673,909l-5.69,2.61-1.84,5.52c-4.81,14.42-12.53,25.3-20,35.83-11,15.5-21.24,30-16.47,50.48a37.56,37.56,0,0,0,21.7,25.84c31.64,13.77,62.67-7.76,62.67-36C713.4,977.88,704.81,965.77,695.72,953Z" transform="translate(-627.83 -878)"/></svg>